# xmcd CD database file
#
# Track frame offsets:
#	150
#	16703
#	26558
#	43028
#	56783
#	71423
#	82966
#	108039
#	116409
#	132167
#	144077
#	160765
#
# Disc length: 2231 seconds
#
# Revision: 0
# Processed by: cddbd v1.4PL0 Copyright (c) Steve Scherf et al.
# Submitted via: CDex 1.51
#
DISCID=8b08b50c
DTITLE=Gitte - Gitte Sings Jazz
DYEAR=1900
DGENRE=Jazz
TTITLE0=Gitte - Go to hell
TTITLE1=Gitte - A world without love
TTITLE2=Gitte - Sack full of dreams
TTITLE3=Gitte - My kind of world
TTITLE4=Gitte - Please send me someone to love
TTITLE5=Gitte - I love the life i live
TTITLE6=Gitte - November girl
TTITLE7=Gitte - Not too young to sing the blues
TTITLE8=Gitte - Imagination
TTITLE9=Gitte - What is a life without music
TTITLE10=Gitte - Marriage is for the old folks
TTITLE11=Gitte - Out of this world
EXTD=
EXTT0=
EXTT1=
EXTT2=
EXTT3=
EXTT4=
EXTT5=
EXTT6=
EXTT7=
EXTT8=
EXTT9=
EXTT10=
EXTT11=
PLAYORDER=
